<svg id="Layer_1" data-name="Layer 1" xmlns="http://www.w3.org/2000/svg" width="200" height="115" viewBox="0 0 200 115"><defs><style>.cls-1{fill:#00c1de;}.cls-2{fill:#7d868c;}</style></defs><path class="cls-1" d="M110.67,68.17H89.33V46.83h21.34Zm-18.94-2.4h16.54V49.23H91.73Z"/><g id="Vector_Smart_Object" data-name="Vector Smart Object"><rect class="cls-1" x="101.17" y="56.25" width="5.01" height="2.51"/><rect class="cls-1" x="93.65" y="56.25" width="5.01" height="2.51"/><rect class="cls-1" x="98.66" y="51.23" width="2.51" height="5.01"/><rect class="cls-1" x="98.66" y="58.75" width="2.51" height="5.01"/></g><rect class="cls-2" x="82.44" y="65.81" width="2.32" height="2.32" transform="translate(16.63 150.57) rotate(-90)"/><rect class="cls-2" x="82.44" y="56.43" width="2.32" height="2.32" transform="translate(26.02 141.18) rotate(-90)"/><rect class="cls-2" x="82.44" y="46.87" width="2.32" height="2.32" transform="translate(35.57 131.63) rotate(-90)"/><rect class="cls-2" x="75.98" y="65.81" width="2.32" height="2.32" transform="translate(10.17 144.1) rotate(-90)"/><rect class="cls-2" x="75.98" y="56.43" width="2.32" height="2.32" transform="translate(19.55 134.72) rotate(-90)"/><rect class="cls-2" x="75.98" y="46.87" width="2.32" height="2.32" transform="translate(29.1 125.17) rotate(-90)"/><rect class="cls-2" x="108.31" y="72.74" width="2.32" height="2.32" transform="translate(218.94 147.8) rotate(-180)"/><rect class="cls-2" x="98.93" y="72.74" width="2.32" height="2.32" transform="translate(200.17 147.8) rotate(-180)"/><rect class="cls-2" x="89.37" y="72.74" width="2.32" height="2.32" transform="translate(181.06 147.8) rotate(-180)"/><rect class="cls-2" x="108.31" y="79.2" width="2.32" height="2.32" transform="translate(218.94 160.73) rotate(-180)"/><rect class="cls-2" x="98.93" y="79.2" width="2.32" height="2.32" transform="translate(200.17 160.73) rotate(-180)"/><rect class="cls-2" x="89.37" y="79.2" width="2.32" height="2.32" transform="translate(181.06 160.73) rotate(-180)"/><rect class="cls-2" x="115.24" y="46.87" width="2.32" height="2.32" transform="translate(164.43 -68.37) rotate(90)"/><rect class="cls-2" x="115.24" y="56.26" width="2.32" height="2.32" transform="translate(173.82 -58.98) rotate(90)"/><rect class="cls-2" x="115.24" y="65.81" width="2.32" height="2.32" transform="translate(183.37 -49.43) rotate(90)"/><rect class="cls-2" x="121.7" y="46.87" width="2.32" height="2.32" transform="translate(170.9 -74.83) rotate(90)"/><rect class="cls-2" x="121.7" y="56.26" width="2.32" height="2.32" transform="translate(180.28 -65.45) rotate(90)"/><rect class="cls-2" x="121.7" y="65.81" width="2.32" height="2.32" transform="translate(189.83 -55.9) rotate(90)"/><rect class="cls-2" x="89.37" y="39.94" width="2.32" height="2.32"/><rect class="cls-2" x="98.76" y="39.94" width="2.32" height="2.32"/><rect class="cls-2" x="108.31" y="39.94" width="2.32" height="2.32"/><rect class="cls-2" x="89.37" y="33.48" width="2.32" height="2.32"/><rect class="cls-2" x="98.76" y="33.48" width="2.32" height="2.32"/><rect class="cls-2" x="108.31" y="33.48" width="2.32" height="2.32"/><rect class="cls-2" x="77.2" y="88.6" width="2.4" height="4.9"/><rect class="cls-2" x="120.4" y="88.6" width="2.4" height="4.9"/><rect class="cls-2" x="109.6" y="88.6" width="2.4" height="4.9"/><rect class="cls-2" x="98.8" y="88.6" width="2.4" height="4.9"/><rect class="cls-2" x="88" y="88.6" width="2.4" height="4.9"/><path class="cls-2" d="M136,37.1V34.7h-4.9V29.41a3,3,0,0,0-3-3h-5.3V21.5h-2.4v4.91H112V21.5h-2.4v4.91h-8.4V21.5H98.8v4.91H90.4V21.5H88v4.91H79.6V21.5H77.2v4.91H71.9a3,3,0,0,0-3,3V34.7H64v2.4h4.9v8.4H64v2.4h4.9v8.4H64v2.4h4.9v8.4H64v2.4h4.9v8.4H64v2.4h4.9v5.3a3,3,0,0,0,3,3h56.2a3,3,0,0,0,3-3V80.3H136V77.9h-4.9V69.5H136V67.1h-4.9V58.7H136V56.3h-4.9V47.9H136V45.5h-4.9V37.1Zm-7.31,48.5a.6.6,0,0,1-.59.59H71.9a.6.6,0,0,1-.59-.59V29.41a.6.6,0,0,1,.59-.6h56.2a.6.6,0,0,1,.59.6Z"/></svg>