<svg id="Layer_1" data-name="Layer 1" xmlns="http://www.w3.org/2000/svg" width="200" height="115" viewBox="0 0 200 115"><defs><style>.cls-1{fill:#ff6b00;}.cls-2{fill:#7d868c;}</style></defs><path class="cls-1" d="M101.66,60.5H71.24V30.08h30.42Zm-28-2.4H99.25V32.48H73.64Z"/><g id="Vector_Smart_Object" data-name="Vector Smart Object"><rect class="cls-1" x="87.57" y="44.04" width="5.01" height="2.51"/><rect class="cls-1" x="80.05" y="44.04" width="5.01" height="2.51"/><rect class="cls-1" x="85.07" y="39.02" width="2.51" height="5.01"/><rect class="cls-1" x="85.07" y="46.54" width="2.51" height="5.01"/></g><path class="cls-2" d="M127.08,45.11h-20.9V30.25h20.9Zm-18.5-2.4h16.09V32.65H108.58Z"/><path class="cls-2" d="M127.08,65h-20.9V50.15h20.9Zm-18.5-2.41h16.09v-10H108.58Z"/><path class="cls-2" d="M127.08,84.92h-20.9V70.06h20.9Zm-18.5-2.4h16.09V72.46H108.58Z"/><path class="cls-2" d="M101.7,84.92H71.21V65.36H101.7Zm-28.09-2.4H99.29V67.77H73.61Z"/><path class="cls-2" d="M132.14,23.9a.6.6,0,0,1,.6.6v66a.6.6,0,0,1-.6.6h-66a.6.6,0,0,1-.6-.6v-66a.6.6,0,0,1,.6-.6h66m0-2.4h-66a3,3,0,0,0-3,3v66a3,3,0,0,0,3,3h66a3,3,0,0,0,3-3v-66a3,3,0,0,0-3-3Z"/></svg>