<svg id="Layer_1" data-name="Layer 1" xmlns="http://www.w3.org/2000/svg" width="200" height="115" viewBox="0 0 200 115"><defs><style>.cls-1{fill:#7d868c;}.cls-2{fill:#ffc700;}</style></defs><path class="cls-1" d="M146.38,23.9a.6.6,0,0,1,.6.6v66a.6.6,0,0,1-.6.6H53.62a.6.6,0,0,1-.6-.6v-66a.6.6,0,0,1,.6-.6h92.76m0-2.4H53.62a3,3,0,0,0-3,3v66a3,3,0,0,0,3,3h92.76a3,3,0,0,0,3-3v-66a3,3,0,0,0-3-3Z"/><path class="cls-2" d="M137.71,76.21H107.29V45.79h30.42Zm-28-2.4h25.61V48.2H109.7Z"/><g id="Vector_Smart_Object" data-name="Vector Smart Object"><rect class="cls-2" x="123.63" y="59.75" width="5.01" height="2.51"/><rect class="cls-2" x="116.11" y="59.75" width="5.01" height="2.51"/><rect class="cls-2" x="121.12" y="54.74" width="2.51" height="5.01"/><rect class="cls-2" x="121.12" y="62.26" width="2.51" height="5.01"/></g><rect class="cls-1" x="79.16" y="56.54" width="2.32" height="2.32" transform="translate(138.02 -22.62) rotate(90)"/><rect class="cls-1" x="79.16" y="39.6" width="2.32" height="2.32" transform="translate(121.08 -39.56) rotate(90)"/><rect class="cls-1" x="79.16" y="48.07" width="2.32" height="2.32" transform="translate(129.55 -31.09) rotate(90)"/><rect class="cls-1" x="70.72" y="56.54" width="2.32" height="2.32" transform="translate(129.59 -14.18) rotate(90)"/><rect class="cls-1" x="70.72" y="39.6" width="2.32" height="2.32" transform="translate(112.64 -31.13) rotate(90)"/><rect class="cls-1" x="70.72" y="48.07" width="2.32" height="2.32" transform="translate(121.11 -22.65) rotate(90)"/><rect class="cls-1" x="79.16" y="31.12" width="2.32" height="2.32" transform="translate(112.6 -48.04) rotate(90)"/><rect class="cls-1" x="70.72" y="31.12" width="2.32" height="2.32" transform="translate(104.17 -39.6) rotate(90)"/><polygon class="cls-1" points="64.69 31.12 64.69 33.53 64.69 34.44 64.69 81.52 137.71 81.52 137.71 83.92 62.29 83.92 62.29 31.12 64.69 31.12"/><path class="cls-1" d="M98.39,76.21H70.68V65.62H98.39Zm-25.31-2.4H96V68H73.08Z"/><path class="cls-1" d="M98.39,59H87.55V48.35H98.39ZM90,56.54h6V50.75H90Z"/><path class="cls-1" d="M98.39,41.68H87.55V31.08H98.39ZM90,39.28h6v-5.8H90Z"/><path class="cls-2" d="M134.48,48.14H110.53v-5a12,12,0,1,1,23.95,0Zm-21.55-2.4h19.15V43.1a9.58,9.58,0,0,0-19.15,0Z"/></svg>